<svg width="23" height="18" viewBox="0 0 23 18" fill="none" xmlns="http://www.w3.org/2000/svg">
<path d="M19.55 0H3.45C2.535 0 1.65748 0.355579 1.01048 0.988515C0.363481 1.62145 0 2.47989 0 3.375V14.625C0 15.5201 0.363481 16.3786 1.01048 17.0115C1.65748 17.6444 2.535 18 3.45 18H19.55C20.465 18 21.3425 17.6444 21.9895 17.0115C22.6365 16.3786 23 15.5201 23 14.625V3.375C23 2.47989 22.6365 1.62145 21.9895 0.988515C21.3425 0.355579 20.465 0 19.55 0ZM19.0785 2.25L12.3165 8.865C12.2096 8.97044 12.0824 9.05414 11.9423 9.11125C11.8021 9.16837 11.6518 9.19777 11.5 9.19777C11.3482 9.19777 11.1979 9.16837 11.0577 9.11125C10.9176 9.05414 10.7904 8.97044 10.6835 8.865L3.9215 2.25H19.0785ZM20.7 14.625C20.7 14.9234 20.5788 15.2095 20.3632 15.4205C20.1475 15.6315 19.855 15.75 19.55 15.75H3.45C3.145 15.75 2.85249 15.6315 2.63683 15.4205C2.42116 15.2095 2.3 14.9234 2.3 14.625V3.83625L9.062 10.4513C9.70888 11.0833 10.5857 11.4383 11.5 11.4383C12.4143 11.4383 13.2911 11.0833 13.938 10.4513L20.7 3.83625V14.625Z" fill="black"/>
</svg>
