<svg width="22" height="22" viewBox="0 0 22 22" fill="none" xmlns="http://www.w3.org/2000/svg">
<path d="M19.1603 12.1441C18.9181 12.1441 18.665 12.0668 18.4228 12.0116C17.9328 11.9017 17.451 11.7578 16.9809 11.581C16.4703 11.3947 15.909 11.4044 15.4051 11.6082C14.9012 11.812 14.4902 12.1955 14.2512 12.685L14.0091 13.1929C12.9401 12.5848 11.9526 11.8428 11.0703 10.9849C10.2149 10.0999 9.47519 9.10934 8.86894 8.03716L9.37526 7.80532C9.86326 7.56566 10.2456 7.15344 10.4488 6.64798C10.652 6.14252 10.6617 5.57955 10.4759 5.06739C10.3011 4.59159 10.1577 4.10478 10.0467 3.6101C9.99163 3.36722 9.94761 3.1133 9.91459 2.87041C9.78092 2.09277 9.37484 1.38855 8.76947 0.884573C8.16409 0.380591 7.39921 0.109969 6.61256 0.12144H3.29953C2.83421 0.120829 2.37403 0.218867 1.94913 0.409127C1.52423 0.599386 1.14422 0.877571 0.834015 1.22545C0.517373 1.58276 0.281603 2.0046 0.142905 2.46197C0.00420663 2.91935 -0.0341322 3.40142 0.0305223 3.87506C0.628835 8.47008 2.7219 12.7387 5.98518 16.0191C9.25566 19.2923 13.5114 21.3917 18.0926 21.9918C18.2355 22.0027 18.379 22.0027 18.5219 21.9918C19.3335 21.993 20.1172 21.6943 20.7232 21.1527C21.07 20.8416 21.3474 20.4604 21.5371 20.0343C21.7268 19.6081 21.8245 19.1465 21.8239 18.6798V15.3678C21.818 14.6049 21.5497 13.8675 21.0644 13.2802C20.579 12.6928 19.9065 12.2915 19.1603 12.1441ZM19.6996 18.7681C19.6992 18.9221 19.6667 19.0744 19.6042 19.2151C19.5416 19.3558 19.4504 19.4818 19.3364 19.5851C19.2157 19.6953 19.0722 19.7773 18.9161 19.825C18.76 19.8727 18.5952 19.885 18.4338 19.8611C14.3264 19.323 10.5092 17.4455 7.57015 14.5177C4.62856 11.5672 2.74042 7.72513 2.19885 3.58802C2.17494 3.4261 2.18723 3.26087 2.23482 3.1043C2.28241 2.94773 2.36411 2.80373 2.47402 2.68273C2.57817 2.56698 2.70558 2.47467 2.84786 2.41187C2.99015 2.34908 3.14408 2.31722 3.29953 2.31841H6.60155C6.85599 2.31217 7.10471 2.39457 7.3054 2.55158C7.50608 2.70858 7.64631 2.93049 7.70223 3.17954C7.70223 3.47762 7.80129 3.78674 7.86733 4.08482C7.99454 4.66317 8.16376 5.23141 8.37364 5.78499L6.8327 6.51363C6.56783 6.63558 6.362 6.85792 6.26034 7.13188C6.15026 7.40066 6.15026 7.70214 6.26034 7.97092C7.84444 11.3743 10.572 14.1101 13.9651 15.699C14.233 15.8094 14.5336 15.8094 14.8016 15.699C15.0747 15.597 15.2964 15.3905 15.418 15.1249L16.1114 13.5793C16.6792 13.787 17.2602 13.9566 17.8505 14.0871C18.1366 14.1533 18.4448 14.2086 18.742 14.2527C18.9903 14.3088 19.2115 14.4495 19.3681 14.6507C19.5246 14.852 19.6067 15.1015 19.6005 15.3567L19.6996 18.7681ZM13.2056 0C12.9524 0 12.6883 0 12.4351 0C12.1432 0.024888 11.8731 0.165071 11.6842 0.389711C11.4954 0.614351 11.4032 0.905046 11.428 1.19785C11.4528 1.49065 11.5926 1.76157 11.8165 1.95101C12.0405 2.14045 12.3303 2.2329 12.6222 2.20801H13.2056C14.9571 2.20801 16.6369 2.9059 17.8754 4.14815C19.1139 5.39039 19.8097 7.07524 19.8097 8.83204C19.8097 9.03076 19.8097 9.21844 19.8097 9.41717C19.7853 9.70841 19.877 9.99748 20.0647 10.221C20.2525 10.4445 20.521 10.5842 20.8113 10.6095H20.8993C21.1749 10.6106 21.4408 10.508 21.6446 10.322C21.8484 10.136 21.9752 9.8801 22 9.60485C22 9.35093 22 9.08597 22 8.83204C22 6.49155 21.0738 4.24676 19.4248 2.59075C17.7759 0.934733 15.539 0.00292562 13.2056 0ZM15.407 8.83204C15.407 9.12484 15.5229 9.40565 15.7293 9.61269C15.9358 9.81973 16.2157 9.93605 16.5076 9.93605C16.7995 9.93605 17.0795 9.81973 17.2859 9.61269C17.4923 9.40565 17.6083 9.12484 17.6083 8.83204C17.6083 7.66084 17.1444 6.53761 16.3188 5.70944C15.4931 4.88128 14.3733 4.41602 13.2056 4.41602C12.9137 4.41602 12.6337 4.53234 12.4273 4.73938C12.2209 4.94642 12.1049 5.22723 12.1049 5.52003C12.1049 5.81283 12.2209 6.09364 12.4273 6.30068C12.6337 6.50772 12.9137 6.62403 13.2056 6.62403C13.7894 6.62403 14.3494 6.85666 14.7622 7.27074C15.175 7.68483 15.407 8.24644 15.407 8.83204Z" fill="#03041C"/>
</svg>
